<svg width="160" height="160" viewBox="0 0 160 160" fill="none" xmlns="http://www.w3.org/2000/svg">
<path fill-rule="evenodd" clip-rule="evenodd" d="M81.4774 0.187487C95.946 1.82797 103.855 17.3853 115.74 25.7794C126.933 33.6844 141.68 36.69 149.283 48.0762C157.412 60.2496 162.595 75.9534 158.652 90.0421C154.788 103.849 137.895 108.808 129.111 120.152C119.557 132.488 119.971 154.452 105.09 159.206C90.301 163.93 77.8462 146.248 63.1571 141.222C49.3815 136.509 33.0377 139.762 21.6804 130.667C9.5865 120.983 0.509853 106.122 0.0140963 90.6573C-0.469913 75.5595 11.6217 63.6825 19.1121 50.5552C25.8868 38.6823 31.1724 25.9936 41.8158 17.3977C53.2531 8.1607 66.8567 -1.47024 81.4774 0.187487Z" fill="url(#paint0_linear_603_123)"/>
<defs>
<linearGradient id="paint0_linear_603_123" x1="160" y1="160" x2="0" y2="0" gradientUnits="userSpaceOnUse">
<stop stop-color="#18EF95"/>
<stop offset="1" stop-color="#26C4CE"/>
</linearGradient>
</defs>
</svg>
