<svg width="1033" height="982" viewBox="0 0 1033 982" fill="none" xmlns="http://www.w3.org/2000/svg">
<g clip-path="url(#clip0_64_365)">
<path d="M412 311.303C143.2 91.6327 714 12.2384 1033 0V982H14C173 940.976 450 820.66 286 667.595C122 514.529 242.333 504.186 323 518.148C464.666 540.729 680.8 530.973 412 311.303Z" fill="url(#paint0_linear_64_365)"/>
<path d="M1016.5 -2.5C1021.7 -24.5 1034.5 -7.50002 1040 -2.09808e-05C1022 17.5 946 23 934.5 14C925.3 6.8 849.333 17 812.5 23C785.5 28.1667 727.8 37.7 713 34.5C698.2 31.3 686.5 41.5 682.5 47C668.833 54.1667 639.5 66.3 631.5 57.5C621.5 46.5 582 54 571.5 63C561 72 508 78.5 493 87.5C478 96.5 454 102.5 418 115.5C382 128.5 378 164.5 362 164.5C346 164.5 350.5 210.5 347.5 224.5C344.5 238.5 378 253 378 265C378 277 381 279.5 418 302.5C455 325.5 402 302.5 435.5 328C462.3 348.4 483 362.167 490 366.5C495.667 369.167 507.2 376.6 508 385C509 395.5 549.5 456 549 464.5C548.5 473 569.5 483 552.5 495.5C535.5 508 508 517 490 526.5C472 536 455 522 444 531.5C433 541 398 534 380.5 535C363 536 352.5 522 329.5 531.5C306.5 541 289.5 522 277 517C264.5 512 243 522 227 526.5C214.2 530.1 208.667 549.333 207.5 558.5C210.167 569 219.8 592.4 237 602C258.5 614 227 620 254.5 629C276.5 636.2 291.333 656.666 296 666C305.5 680.167 327.7 711.7 340.5 724.5C356.5 740.5 344 783.5 340.5 810C337 836.5 296 849.5 268 875C245.6 895.4 205.667 917.833 188.5 926.5C173 937.667 133.8 960.8 101 964C68.2 967.2 20.6666 987.333 0.999908 997C-1.83342 988.167 -9.15527e-05 970.2 29.9999 969C59.9999 967.8 58.4999 959.833 53.9999 956C50.4999 944.5 92.4999 947 111 946C129.5 945 127 923.5 165.5 917.5C196.3 912.7 188.333 900.5 180.5 895C186.833 889.333 206.4 877.4 234 875C261.6 872.6 269.833 855.333 270.5 847C304.5 839.4 308 829.833 305.5 826C308.667 811.833 317.9 781.3 329.5 772.5C341.1 763.7 331 752.833 324.5 748.5C324.333 740 321.7 721.2 312.5 714C303.3 706.8 297.667 702.333 296 701C297.333 698.167 295.4 686.7 277 663.5C258.6 640.3 242.667 640.833 237 644C243.8 630 225.5 608.5 215.5 599.5C203.666 592.5 182 578 190 576C198 574 198.667 563.5 198 558.5C197 546.333 200 521 220 517C245 512 268 504.5 289.5 503C311 501.5 320 527 334 517C348 507 330.5 500.5 344 495.5C357.5 490.5 360 512 368.5 517C375.3 521 391.333 519.667 388.5 512.5C394.167 517.167 389.3 516 404.5 522C419.7 528 426.167 521.166 427.5 517C435.333 516.5 454.5 515.8 468.5 517C482.5 518.2 486 511.166 486 507.5C493 506.333 510.1 502.9 522.5 498.5C534.9 494.1 532.667 477.667 530 470C526.833 463.667 521.8 449.6 527 444C532.2 438.4 510.5 411.333 499 398.5C492.667 399 480.4 398 482 390C483.6 382 471.333 368 465 362C460.167 360.667 448.5 355.4 440.5 345C432.706 334.868 414.156 338.15 405.192 341.254C404.959 341.349 404.728 341.431 404.5 341.5C404.724 341.418 404.954 341.336 405.192 341.254C410.559 339.06 416.569 329.854 402 308C386.8 285.2 379.667 294.833 378 302.5C372.333 290.667 358.9 268.2 350.5 273C340 279 353.5 251.5 334 239.5C318.4 229.9 323.167 206.5 327.5 196C333.167 189.667 346.3 172.9 353.5 156.5C359.056 143.844 359.015 140.3 357.787 140.03C357.344 140.194 356.914 140.351 356.5 140.5C356.957 140.158 357.424 139.951 357.787 140.03C370.707 135.253 395.246 124.395 399.5 115.5C403.9 106.3 425.333 103 435.5 102.5C443.333 94.8333 465 79.3 489 78.5C513 77.7 519.333 67.8333 519.5 63C527.833 66.1667 548.3 68.8 563.5 54C582.5 35.5 584 65 595.5 47C604.7 32.6 613 41 616 47C616.5 45 619.3 39.7 626.5 34.5C633.7 29.3 649.167 36.6667 656 41C653.667 38.8333 651 33.3 659 28.5C667 23.7 683 30.5 690 34.5L697 28.5C708.167 28.5 732.7 26.9 741.5 20.5C750.3 14.1 773.5 17.8333 784 20.5C783.6 11.7 816.5 9.5 833 9.5C848.334 11.3333 881.1 13 889.5 4.99998C897.9 -3.00004 919.667 1.66664 929.5 4.99998C923.1 -9.00004 967.167 -6.83335 991 -1.00001C1002.6 -25.8 1013.33 -12.8333 1016.5 -2.5Z" fill="white"/>
<path d="M1040 -2.09808e-05C1034.5 -7.50002 1021.7 -24.5 1016.5 -2.5C1013.33 -12.8333 1002.6 -25.8 991 -1.00001C967.167 -6.83335 923.1 -9.00004 929.5 4.99998C919.667 1.66664 897.9 -3.00004 889.5 4.99998C881.1 13 848.334 11.3333 833 9.5C816.5 9.5 783.6 11.7 784 20.5C773.5 17.8333 750.3 14.1 741.5 20.5C732.7 26.9 708.167 28.5 697 28.5L690 34.5C683 30.5 667 23.7 659 28.5C651 33.3 653.667 38.8333 656 41C649.167 36.6667 633.7 29.3 626.5 34.5C619.3 39.7 616.5 45 616 47C613 41 604.7 32.6 595.5 47C584 65 582.5 35.5 563.5 54C548.3 68.8 527.833 66.1667 519.5 63C519.333 67.8333 513 77.7 489 78.5C465 79.3 443.333 94.8333 435.5 102.5C425.333 103 403.9 106.3 399.5 115.5C395.1 124.7 369 136 356.5 140.5C358.5 139 360.7 140.1 353.5 156.5C346.3 172.9 333.167 189.667 327.5 196C323.167 206.5 318.4 229.9 334 239.5C353.5 251.5 340 279 350.5 273C358.9 268.2 372.333 290.667 378 302.5C379.667 294.833 386.8 285.2 402 308C417.2 330.8 410 339.833 404.5 341.5C413.167 338.333 432.5 334.6 440.5 345C448.5 355.4 460.167 360.667 465 362C471.333 368 483.6 382 482 390C480.4 398 492.667 399 499 398.5C510.5 411.333 532.2 438.4 527 444C521.8 449.6 526.833 463.667 530 470C532.667 477.667 534.9 494.1 522.5 498.5C510.1 502.9 493 506.333 486 507.5C486 511.166 482.5 518.2 468.5 517C454.5 515.8 435.333 516.5 427.5 517C426.167 521.166 419.7 528 404.5 522C389.3 516 394.167 517.167 388.5 512.5C391.333 519.667 375.3 521 368.5 517C360 512 357.5 490.5 344 495.5C330.5 500.5 348 507 334 517C320 527 311 501.5 289.5 503C268 504.5 245 512 220 517C200 521 197 546.333 198 558.5C198.667 563.5 198 574 190 576C182 578 203.666 592.5 215.5 599.5C225.5 608.5 243.8 630 237 644C242.667 640.833 258.6 640.3 277 663.5C295.4 686.7 297.333 698.166 296 701C297.667 702.333 303.3 706.8 312.5 714C321.7 721.2 324.333 740 324.5 748.5C331 752.833 341.1 763.7 329.5 772.5C317.9 781.3 308.667 811.833 305.5 826C308 829.833 304.5 839.4 270.5 847C269.833 855.333 261.6 872.6 234 875C206.4 877.4 186.833 889.333 180.5 895C188.333 900.5 196.3 912.7 165.5 917.5C127 923.5 129.5 945 111 946C92.4999 947 50.4999 944.5 53.9999 956C58.4999 959.833 59.9999 967.8 29.9999 969C-9.15527e-05 970.2 -1.83342 988.166 0.999908 997C20.6666 987.333 68.2 967.2 101 964C133.8 960.8 173 937.666 188.5 926.5C205.667 917.833 245.6 895.4 268 875C296 849.5 337 836.5 340.5 810C344 783.5 356.5 740.5 340.5 724.5C327.7 711.7 305.5 680.166 296 666C291.333 656.666 276.5 636.2 254.5 629C227 620 258.5 614 237 602C219.8 592.4 210.167 569 207.5 558.5C208.667 549.333 214.2 530.1 227 526.5C243 522 264.5 512 277 517C289.5 522 306.5 541 329.5 531.5C352.5 522 363 536 380.5 535C398 534 433 541 444 531.5C455 522 472 536 490 526.5C508 517 535.5 508 552.5 495.5C569.5 483 548.5 473 549 464.5C549.5 456 509 395.5 508 385C507.2 376.6 495.667 369.167 490 366.5C483 362.167 462.3 348.4 435.5 328C402 302.5 455 325.5 418 302.5C381 279.5 378 277 378 265C378 253 344.5 238.5 347.5 224.5C350.5 210.5 346 164.5 362 164.5C378 164.5 382 128.5 418 115.5C454 102.5 478 96.5 493 87.5C508 78.5 561 72 571.5 63C582 54 621.5 46.5 631.5 57.5C639.5 66.3 668.833 54.1667 682.5 47C686.5 41.5 698.2 31.3 713 34.5C727.8 37.7 785.5 28.1667 812.5 23C849.333 17 925.3 6.8 934.5 14C946 23 1022 17.5 1040 -2.09808e-05Z" stroke="black"/>
<g filter="url(#filter0_d_64_365)">
<path d="M566.643 454.387C540.812 450.307 506.255 464.933 496.558 471.677C494.19 510.24 519.737 539.22 529.002 548.3C549.743 546.597 566.547 535.711 577.317 520.376C586.637 507.104 602.223 460.007 566.643 454.387Z" fill="white"/>
<path fill-rule="evenodd" clip-rule="evenodd" d="M584.327 465.393C580.993 460.079 575.392 456.132 566.587 454.742C553.75 452.714 538.714 455.333 525.655 459.316C512.84 463.225 501.983 468.43 497.039 471.782L506.043 486.909L510.947 482.56L505.884 480.512C505.7 480.437 505.612 480.228 505.686 480.044C505.76 479.86 505.97 479.772 506.153 479.846L511.753 482.112C511.869 482.159 511.951 482.261 511.973 482.384C511.994 482.506 511.95 482.631 511.857 482.713L506.195 487.734C506.115 487.805 506.007 487.837 505.902 487.82C505.796 487.804 505.703 487.741 505.648 487.649L496.853 472.874C495.084 510.526 519.887 538.832 529.136 547.929C549.687 546.191 566.337 535.385 577.023 520.169C581.646 513.587 587.848 498.56 588.459 484.496C588.764 477.469 587.671 470.722 584.327 465.393ZM589.176 484.528C588.559 498.735 582.308 513.893 577.611 520.582C566.785 535.997 549.888 546.945 529.031 548.658C528.927 548.666 528.825 548.629 528.751 548.556C519.469 539.461 493.821 510.382 496.2 471.655C496.206 471.545 496.263 471.445 496.353 471.382C501.242 467.982 512.344 462.625 525.446 458.629C538.547 454.633 553.705 451.98 566.699 454.032C575.683 455.452 581.477 459.5 584.936 465.012C588.385 470.509 589.485 477.419 589.176 484.528Z" fill="black"/>
<path fill-rule="evenodd" clip-rule="evenodd" d="M496.527 472.209C496.537 472.032 496.547 471.854 496.558 471.677C506.255 464.933 540.812 450.307 566.643 454.387C589.213 457.952 591.194 478.207 587.246 495.931L542.31 479.302L496.527 472.209Z" fill="black"/>
<path d="M531.447 492.373C529.134 496.379 524.012 497.752 520.006 495.439C516 493.126 514.627 488.003 516.94 483.997C519.253 479.991 524.376 478.618 528.382 480.931C532.388 483.244 533.76 488.367 531.447 492.373Z" fill="#FFD7DB"/>
<path fill-rule="evenodd" clip-rule="evenodd" d="M521.561 492.745C524.079 494.198 527.299 493.336 528.753 490.818C530.207 488.299 529.344 485.079 526.826 483.626C524.308 482.172 521.088 483.035 519.634 485.553C518.18 488.071 519.043 491.291 521.561 492.745ZM520.006 495.439C524.012 497.752 529.134 496.379 531.447 492.373C533.76 488.367 532.388 483.244 528.382 480.931C524.376 478.618 519.253 479.991 516.94 483.997C514.627 488.003 516 493.126 520.006 495.439Z" fill="black"/>
<path fill-rule="evenodd" clip-rule="evenodd" d="M546.965 503.885C547.359 503.934 547.638 504.292 547.589 504.686C547.19 507.903 544.37 514.489 536.275 514.952C535.879 514.975 535.54 514.673 535.517 514.277C535.495 513.881 535.797 513.542 536.193 513.519C543.321 513.11 545.812 507.353 546.165 504.509C546.213 504.115 546.572 503.836 546.965 503.885Z" fill="black"/>
<path d="M543.746 516.061C549.111 513.853 551.296 508.169 551.718 505.604C569.702 503.938 587.282 515.958 593.824 522.176C576.731 513.302 559.29 517.298 552.706 520.405C548.12 521.073 544.822 517.788 543.746 516.061Z" fill="white"/>
<path fill-rule="evenodd" clip-rule="evenodd" d="M577.372 510.286C584.903 513.894 590.995 518.497 594.319 521.656C594.578 521.902 594.616 522.302 594.409 522.593C594.201 522.884 593.811 522.978 593.494 522.813C576.65 514.069 559.452 518.015 553.013 521.054C552.948 521.085 552.88 521.105 552.81 521.116C547.816 521.843 544.283 518.28 543.137 516.441C543.025 516.262 542.998 516.042 543.063 515.841C543.128 515.64 543.278 515.478 543.473 515.397C545.982 514.365 547.765 512.513 548.978 510.584C550.195 508.65 550.814 506.679 551.01 505.487C551.063 505.165 551.327 504.919 551.652 504.889C560.818 504.04 569.843 506.68 577.372 510.286ZM552.32 506.273C552.019 507.634 551.35 509.511 550.194 511.349C548.998 513.249 547.26 515.138 544.836 516.353C546.144 517.985 548.902 520.184 552.5 519.709C558.686 516.828 573.797 513.291 589.464 519.412C586.168 516.862 581.79 513.995 576.752 511.581C569.509 508.111 560.956 505.605 552.32 506.273Z" fill="black"/>
<path d="M762.643 515.387C736.812 511.307 702.255 525.933 692.558 532.677C690.19 571.24 715.737 600.22 725.002 609.3C745.743 607.597 762.547 596.711 773.317 581.376C782.637 568.104 798.223 521.007 762.643 515.387Z" fill="white"/>
<path fill-rule="evenodd" clip-rule="evenodd" d="M780.327 526.393C776.993 521.079 771.392 517.132 762.587 515.742C749.75 513.714 734.714 516.333 721.655 520.316C708.84 524.225 697.983 529.43 693.039 532.782L702.043 547.909L706.947 543.56L701.884 541.512C701.7 541.437 701.612 541.228 701.686 541.044C701.76 540.86 701.97 540.772 702.153 540.846L707.753 543.112C707.869 543.159 707.951 543.261 707.973 543.384C707.994 543.506 707.95 543.631 707.857 543.713L702.195 548.734C702.115 548.805 702.007 548.837 701.902 548.82C701.796 548.804 701.703 548.741 701.648 548.649L692.853 533.874C691.084 571.526 715.887 599.832 725.136 608.929C745.687 607.191 762.337 596.385 773.023 581.169C777.646 574.587 783.848 559.56 784.459 545.496C784.764 538.469 783.671 531.722 780.327 526.393ZM785.176 545.528C784.559 559.735 778.308 574.893 773.611 581.582C762.785 596.997 745.888 607.945 725.031 609.658C724.927 609.666 724.825 609.629 724.751 609.556C715.469 600.461 689.821 571.382 692.2 532.655C692.206 532.545 692.263 532.445 692.353 532.382C697.242 528.982 708.344 523.625 721.446 519.629C734.547 515.633 749.705 512.98 762.699 515.032C771.683 516.452 777.477 520.5 780.936 526.012C784.385 531.509 785.485 538.419 785.176 545.528Z" fill="black"/>
<path fill-rule="evenodd" clip-rule="evenodd" d="M692.527 533.209C692.537 533.032 692.547 532.854 692.558 532.677C702.255 525.933 736.812 511.307 762.643 515.387C785.213 518.952 787.194 539.207 783.246 556.931L738.31 540.302L692.527 533.209Z" fill="black"/>
<path d="M727.447 553.373C725.134 557.379 720.012 558.752 716.006 556.439C712 554.126 710.627 549.003 712.94 544.997C715.253 540.991 720.376 539.618 724.382 541.931C728.388 544.244 729.76 549.367 727.447 553.373Z" fill="#FFD7DB"/>
<path fill-rule="evenodd" clip-rule="evenodd" d="M717.561 553.745C720.079 555.198 723.299 554.336 724.753 551.818C726.207 549.299 725.344 546.079 722.826 544.626C720.308 543.172 717.088 544.035 715.634 546.553C714.18 549.071 715.043 552.291 717.561 553.745ZM716.006 556.439C720.012 558.752 725.134 557.379 727.447 553.373C729.76 549.367 728.388 544.244 724.382 541.931C720.376 539.618 715.253 540.991 712.94 544.997C710.627 549.003 712 554.126 716.006 556.439Z" fill="black"/>
<path fill-rule="evenodd" clip-rule="evenodd" d="M742.965 564.885C743.359 564.934 743.638 565.292 743.589 565.686C743.19 568.903 740.37 575.489 732.275 575.952C731.879 575.975 731.54 575.673 731.517 575.277C731.495 574.881 731.797 574.542 732.193 574.519C739.321 574.11 741.812 568.353 742.165 565.509C742.213 565.115 742.572 564.836 742.965 564.885Z" fill="black"/>
<path d="M739.746 577.061C745.111 574.853 747.296 569.169 747.718 566.604C765.702 564.938 783.282 576.958 789.824 583.176C772.731 574.302 755.29 578.298 748.706 581.405C744.12 582.073 740.822 578.788 739.746 577.061Z" fill="white"/>
<path fill-rule="evenodd" clip-rule="evenodd" d="M773.372 571.286C780.903 574.894 786.995 579.497 790.319 582.656C790.578 582.902 790.616 583.302 790.409 583.593C790.201 583.884 789.811 583.978 789.494 583.813C772.65 575.069 755.452 579.015 749.013 582.054C748.948 582.085 748.88 582.105 748.81 582.116C743.816 582.843 740.283 579.28 739.137 577.441C739.025 577.262 738.998 577.042 739.063 576.841C739.128 576.64 739.278 576.478 739.473 576.397C741.982 575.365 743.765 573.513 744.978 571.584C746.195 569.65 746.814 567.679 747.01 566.487C747.063 566.165 747.327 565.919 747.652 565.889C756.818 565.04 765.843 567.68 773.372 571.286ZM748.32 567.273C748.019 568.634 747.35 570.511 746.194 572.349C744.998 574.249 743.26 576.138 740.836 577.353C742.144 578.985 744.902 581.184 748.5 580.709C754.686 577.828 769.797 574.291 785.464 580.412C782.168 577.862 777.79 574.995 772.752 572.581C765.509 569.111 756.956 566.605 748.32 567.273Z" fill="black"/>
<path d="M842.643 673.387C816.812 669.307 782.255 683.933 772.558 690.677C770.19 729.24 795.737 758.22 805.002 767.3C825.743 765.597 842.547 754.711 853.317 739.376C862.637 726.104 878.223 679.007 842.643 673.387Z" fill="white"/>
<path fill-rule="evenodd" clip-rule="evenodd" d="M860.327 684.393C856.993 679.079 851.392 675.132 842.587 673.742C829.75 671.714 814.714 674.333 801.655 678.316C788.84 682.225 777.983 687.43 773.039 690.782L782.043 705.909L786.947 701.56L781.884 699.512C781.7 699.437 781.612 699.228 781.686 699.044C781.76 698.86 781.97 698.772 782.153 698.846L787.753 701.112C787.869 701.159 787.951 701.261 787.973 701.384C787.994 701.506 787.95 701.631 787.857 701.713L782.195 706.734C782.115 706.805 782.007 706.837 781.902 706.82C781.796 706.804 781.703 706.741 781.648 706.649L772.853 691.874C771.084 729.526 795.887 757.832 805.136 766.929C825.687 765.191 842.337 754.385 853.023 739.169C857.646 732.587 863.848 717.56 864.459 703.496C864.764 696.469 863.671 689.722 860.327 684.393ZM865.176 703.528C864.559 717.735 858.308 732.893 853.611 739.582C842.785 754.997 825.888 765.945 805.031 767.658C804.927 767.666 804.825 767.629 804.751 767.556C795.469 758.461 769.821 729.382 772.2 690.655C772.206 690.545 772.263 690.445 772.353 690.382C777.242 686.982 788.344 681.625 801.446 677.629C814.547 673.633 829.705 670.98 842.699 673.032C851.683 674.452 857.477 678.5 860.936 684.012C864.385 689.509 865.485 696.419 865.176 703.528Z" fill="black"/>
<path fill-rule="evenodd" clip-rule="evenodd" d="M772.527 691.209C772.537 691.032 772.547 690.854 772.558 690.677C782.255 683.933 816.812 669.307 842.643 673.387C865.213 676.952 867.194 697.207 863.246 714.931L818.31 698.302L772.527 691.209Z" fill="black"/>
<path d="M807.447 711.373C805.134 715.379 800.012 716.752 796.006 714.439C792 712.126 790.627 707.003 792.94 702.997C795.253 698.991 800.376 697.618 804.382 699.931C808.388 702.244 809.76 707.367 807.447 711.373Z" fill="#FFD7DB"/>
<path fill-rule="evenodd" clip-rule="evenodd" d="M797.561 711.745C800.079 713.198 803.299 712.336 804.753 709.818C806.207 707.299 805.344 704.079 802.826 702.626C800.308 701.172 797.088 702.035 795.634 704.553C794.18 707.071 795.043 710.291 797.561 711.745ZM796.006 714.439C800.012 716.752 805.134 715.379 807.447 711.373C809.76 707.367 808.388 702.244 804.382 699.931C800.376 697.618 795.253 698.991 792.94 702.997C790.627 707.003 792 712.126 796.006 714.439Z" fill="black"/>
<path fill-rule="evenodd" clip-rule="evenodd" d="M822.965 722.885C823.359 722.934 823.638 723.292 823.589 723.686C823.19 726.903 820.37 733.489 812.275 733.952C811.879 733.975 811.54 733.673 811.517 733.277C811.495 732.881 811.797 732.542 812.193 732.519C819.321 732.11 821.812 726.353 822.165 723.509C822.213 723.115 822.572 722.836 822.965 722.885Z" fill="black"/>
<path d="M819.746 735.061C825.111 732.853 827.296 727.169 827.718 724.604C845.702 722.938 863.282 734.958 869.824 741.176C852.731 732.302 835.29 736.298 828.706 739.405C824.12 740.073 820.822 736.788 819.746 735.061Z" fill="white"/>
<path fill-rule="evenodd" clip-rule="evenodd" d="M853.372 729.286C860.903 732.894 866.995 737.497 870.319 740.656C870.578 740.902 870.616 741.302 870.409 741.593C870.201 741.884 869.811 741.978 869.494 741.813C852.65 733.069 835.452 737.015 829.013 740.054C828.948 740.085 828.88 740.105 828.81 740.116C823.816 740.843 820.283 737.28 819.137 735.441C819.025 735.262 818.998 735.042 819.063 734.841C819.128 734.64 819.278 734.478 819.473 734.397C821.982 733.365 823.765 731.513 824.978 729.584C826.195 727.65 826.814 725.679 827.01 724.487C827.063 724.165 827.327 723.919 827.652 723.889C836.818 723.04 845.843 725.68 853.372 729.286ZM828.32 725.273C828.019 726.634 827.35 728.511 826.194 730.349C824.998 732.249 823.26 734.138 820.836 735.353C822.144 736.985 824.902 739.184 828.5 738.709C834.686 735.828 849.797 732.291 865.464 738.412C862.168 735.862 857.79 732.995 852.752 730.581C845.509 727.111 836.956 724.605 828.32 725.273Z" fill="black"/>
<path d="M651.643 655.387C625.812 651.307 591.255 665.933 581.558 672.677C579.19 711.24 604.737 740.22 614.002 749.3C634.743 747.597 651.547 736.711 662.317 721.376C671.637 708.104 687.223 661.007 651.643 655.387Z" fill="white"/>
<path fill-rule="evenodd" clip-rule="evenodd" d="M669.327 666.393C665.993 661.079 660.392 657.132 651.587 655.742C638.75 653.714 623.714 656.333 610.655 660.316C597.84 664.225 586.983 669.43 582.039 672.782L591.043 687.909L595.947 683.56L590.884 681.512C590.7 681.437 590.612 681.228 590.686 681.044C590.76 680.86 590.97 680.772 591.153 680.846L596.753 683.112C596.869 683.159 596.951 683.261 596.973 683.384C596.994 683.506 596.95 683.631 596.857 683.713L591.195 688.734C591.115 688.805 591.007 688.837 590.902 688.82C590.796 688.804 590.703 688.741 590.648 688.649L581.853 673.874C580.084 711.526 604.887 739.832 614.136 748.929C634.687 747.191 651.337 736.385 662.023 721.169C666.646 714.587 672.848 699.56 673.459 685.496C673.764 678.469 672.671 671.722 669.327 666.393ZM674.176 685.528C673.559 699.735 667.308 714.893 662.611 721.582C651.785 736.997 634.888 747.945 614.031 749.658C613.927 749.666 613.825 749.629 613.751 749.556C604.469 740.461 578.821 711.382 581.2 672.655C581.206 672.545 581.263 672.445 581.353 672.382C586.242 668.982 597.344 663.625 610.446 659.629C623.547 655.633 638.705 652.98 651.699 655.032C660.683 656.452 666.477 660.5 669.936 666.012C673.385 671.509 674.485 678.419 674.176 685.528Z" fill="black"/>
<path fill-rule="evenodd" clip-rule="evenodd" d="M581.527 673.209C581.537 673.032 581.547 672.854 581.558 672.677C591.255 665.933 625.812 651.307 651.643 655.387C674.213 658.952 676.194 679.207 672.246 696.931L627.31 680.302L581.527 673.209Z" fill="black"/>
<path d="M616.447 693.373C614.134 697.379 609.012 698.752 605.006 696.439C601 694.126 599.627 689.003 601.94 684.997C604.253 680.991 609.376 679.618 613.382 681.931C617.388 684.244 618.76 689.367 616.447 693.373Z" fill="#FFD7DB"/>
<path fill-rule="evenodd" clip-rule="evenodd" d="M606.561 693.745C609.079 695.198 612.299 694.336 613.753 691.818C615.207 689.299 614.344 686.079 611.826 684.626C609.308 683.172 606.088 684.035 604.634 686.553C603.18 689.071 604.043 692.291 606.561 693.745ZM605.006 696.439C609.012 698.752 614.134 697.379 616.447 693.373C618.76 689.367 617.388 684.244 613.382 681.931C609.376 679.618 604.253 680.991 601.94 684.997C599.627 689.003 601 694.126 605.006 696.439Z" fill="black"/>
<path fill-rule="evenodd" clip-rule="evenodd" d="M631.965 704.885C632.359 704.934 632.638 705.292 632.589 705.686C632.19 708.903 629.37 715.489 621.275 715.952C620.879 715.975 620.54 715.673 620.517 715.277C620.495 714.881 620.797 714.542 621.193 714.519C628.321 714.11 630.812 708.353 631.165 705.509C631.213 705.115 631.572 704.836 631.965 704.885Z" fill="black"/>
<path d="M628.746 717.061C634.111 714.853 636.296 709.169 636.718 706.604C654.702 704.938 672.282 716.958 678.824 723.176C661.731 714.302 644.29 718.298 637.706 721.405C633.12 722.073 629.822 718.788 628.746 717.061Z" fill="white"/>
<path fill-rule="evenodd" clip-rule="evenodd" d="M662.372 711.286C669.903 714.894 675.995 719.497 679.319 722.656C679.578 722.902 679.616 723.302 679.409 723.593C679.201 723.884 678.811 723.978 678.494 723.813C661.65 715.069 644.452 719.015 638.013 722.054C637.948 722.085 637.88 722.105 637.81 722.116C632.816 722.843 629.283 719.28 628.137 717.441C628.025 717.262 627.998 717.042 628.063 716.841C628.128 716.64 628.278 716.478 628.473 716.397C630.982 715.365 632.765 713.513 633.978 711.584C635.195 709.65 635.814 707.679 636.01 706.487C636.063 706.165 636.327 705.919 636.652 705.889C645.818 705.04 654.843 707.68 662.372 711.286ZM637.32 707.273C637.019 708.634 636.35 710.511 635.194 712.349C633.998 714.249 632.26 716.138 629.836 717.353C631.144 718.985 633.902 721.184 637.5 720.709C643.686 717.828 658.797 714.291 674.464 720.412C671.168 717.862 666.79 714.995 661.752 712.581C654.509 709.111 645.956 706.605 637.32 707.273Z" fill="black"/>
<path d="M529.643 261.387C503.812 257.307 469.255 271.933 459.558 278.677C457.19 317.24 482.737 346.22 492.002 355.3C512.743 353.597 529.547 342.711 540.317 327.376C549.637 314.104 565.223 267.007 529.643 261.387Z" fill="white"/>
<path fill-rule="evenodd" clip-rule="evenodd" d="M547.327 272.393C543.993 267.079 538.392 263.132 529.587 261.742C516.75 259.714 501.714 262.333 488.655 266.316C475.84 270.225 464.983 275.43 460.039 278.782L469.043 293.909L473.947 289.56L468.884 287.512C468.7 287.437 468.612 287.228 468.686 287.044C468.76 286.86 468.97 286.772 469.153 286.846L474.753 289.112C474.869 289.159 474.951 289.261 474.973 289.384C474.994 289.506 474.95 289.631 474.857 289.713L469.195 294.734C469.115 294.805 469.007 294.837 468.902 294.82C468.796 294.804 468.703 294.741 468.648 294.649L459.853 279.874C458.084 317.526 482.887 345.832 492.136 354.929C512.687 353.191 529.337 342.385 540.023 327.169C544.646 320.587 550.848 305.56 551.459 291.496C551.764 284.469 550.671 277.722 547.327 272.393ZM552.176 291.528C551.559 305.735 545.308 320.893 540.611 327.582C529.785 342.997 512.888 353.945 492.031 355.658C491.927 355.666 491.825 355.629 491.751 355.556C482.469 346.461 456.821 317.382 459.2 278.655C459.206 278.545 459.263 278.445 459.353 278.382C464.242 274.982 475.344 269.625 488.446 265.629C501.547 261.633 516.705 258.98 529.699 261.032C538.683 262.452 544.477 266.5 547.936 272.012C551.385 277.509 552.485 284.419 552.176 291.528Z" fill="black"/>
<path fill-rule="evenodd" clip-rule="evenodd" d="M459.527 279.209C459.537 279.032 459.547 278.854 459.558 278.677C469.255 271.933 503.812 257.307 529.643 261.387C552.213 264.952 554.194 285.207 550.246 302.931L505.31 286.302L459.527 279.209Z" fill="black"/>
<path d="M494.447 299.373C492.134 303.379 487.012 304.752 483.006 302.439C479 300.126 477.627 295.003 479.94 290.997C482.253 286.991 487.376 285.618 491.382 287.931C495.388 290.244 496.76 295.367 494.447 299.373Z" fill="#FFD7DB"/>
<path fill-rule="evenodd" clip-rule="evenodd" d="M484.561 299.745C487.079 301.198 490.299 300.336 491.753 297.818C493.207 295.299 492.344 292.079 489.826 290.626C487.308 289.172 484.088 290.035 482.634 292.553C481.18 295.071 482.043 298.291 484.561 299.745ZM483.006 302.439C487.012 304.752 492.134 303.379 494.447 299.373C496.76 295.367 495.388 290.244 491.382 287.931C487.376 285.618 482.253 286.991 479.94 290.997C477.627 295.003 479 300.126 483.006 302.439Z" fill="black"/>
<path fill-rule="evenodd" clip-rule="evenodd" d="M509.965 310.885C510.359 310.934 510.638 311.292 510.589 311.686C510.19 314.903 507.37 321.489 499.275 321.952C498.879 321.975 498.54 321.673 498.517 321.277C498.495 320.881 498.797 320.542 499.193 320.519C506.321 320.11 508.812 314.353 509.165 311.509C509.213 311.115 509.572 310.836 509.965 310.885Z" fill="black"/>
<path d="M506.746 323.061C512.111 320.853 514.296 315.169 514.718 312.604C532.702 310.938 550.282 322.958 556.824 329.176C539.731 320.302 522.29 324.298 515.706 327.405C511.12 328.073 507.822 324.788 506.746 323.061Z" fill="white"/>
<path fill-rule="evenodd" clip-rule="evenodd" d="M540.372 317.286C547.903 320.894 553.995 325.497 557.319 328.656C557.578 328.902 557.616 329.302 557.409 329.593C557.201 329.884 556.811 329.978 556.494 329.813C539.65 321.069 522.452 325.015 516.013 328.054C515.948 328.085 515.88 328.105 515.81 328.116C510.816 328.843 507.283 325.28 506.137 323.441C506.025 323.262 505.998 323.042 506.063 322.841C506.128 322.64 506.278 322.478 506.473 322.397C508.982 321.365 510.765 319.513 511.978 317.584C513.195 315.65 513.814 313.679 514.01 312.487C514.063 312.165 514.327 311.919 514.652 311.889C523.818 311.04 532.843 313.68 540.372 317.286ZM515.32 313.273C515.019 314.634 514.35 316.511 513.194 318.349C511.998 320.249 510.26 322.138 507.836 323.353C509.144 324.985 511.902 327.184 515.5 326.709C521.686 323.828 536.797 320.291 552.464 326.412C549.168 323.862 544.79 320.995 539.752 318.581C532.509 315.111 523.956 312.605 515.32 313.273Z" fill="black"/>
<path d="M739.643 343.387C713.812 339.307 679.255 353.933 669.558 360.677C667.19 399.24 692.737 428.22 702.002 437.3C722.743 435.597 739.547 424.711 750.317 409.376C759.637 396.104 775.223 349.007 739.643 343.387Z" fill="white"/>
<path fill-rule="evenodd" clip-rule="evenodd" d="M757.327 354.393C753.993 349.079 748.392 345.132 739.587 343.742C726.75 341.714 711.714 344.333 698.655 348.316C685.84 352.225 674.983 357.43 670.039 360.782L679.043 375.909L683.947 371.56L678.884 369.512C678.7 369.437 678.612 369.228 678.686 369.044C678.76 368.86 678.97 368.772 679.153 368.846L684.753 371.112C684.869 371.159 684.951 371.261 684.973 371.384C684.994 371.506 684.95 371.631 684.857 371.713L679.195 376.734C679.115 376.805 679.007 376.837 678.902 376.82C678.796 376.804 678.703 376.741 678.648 376.649L669.853 361.874C668.084 399.526 692.887 427.832 702.136 436.929C722.687 435.191 739.337 424.385 750.023 409.169C754.646 402.587 760.848 387.56 761.459 373.496C761.764 366.469 760.671 359.722 757.327 354.393ZM762.176 373.528C761.559 387.735 755.308 402.893 750.611 409.582C739.785 424.997 722.888 435.945 702.031 437.658C701.927 437.666 701.825 437.629 701.751 437.556C692.469 428.461 666.821 399.382 669.2 360.655C669.206 360.545 669.263 360.445 669.353 360.382C674.242 356.982 685.344 351.625 698.446 347.629C711.547 343.633 726.705 340.98 739.699 343.032C748.683 344.452 754.477 348.5 757.936 354.012C761.385 359.509 762.485 366.419 762.176 373.528Z" fill="black"/>
<path fill-rule="evenodd" clip-rule="evenodd" d="M669.527 361.209C669.537 361.032 669.547 360.854 669.558 360.677C679.255 353.933 713.812 339.307 739.643 343.387C762.213 346.952 764.194 367.207 760.246 384.931L715.31 368.302L669.527 361.209Z" fill="black"/>
<path d="M704.447 381.373C702.134 385.379 697.012 386.752 693.006 384.439C689 382.126 687.627 377.003 689.94 372.997C692.253 368.991 697.376 367.618 701.382 369.931C705.388 372.244 706.76 377.367 704.447 381.373Z" fill="#FFD7DB"/>
<path fill-rule="evenodd" clip-rule="evenodd" d="M694.561 381.745C697.079 383.198 700.299 382.336 701.753 379.818C703.207 377.299 702.344 374.079 699.826 372.626C697.308 371.172 694.088 372.035 692.634 374.553C691.18 377.071 692.043 380.291 694.561 381.745ZM693.006 384.439C697.012 386.752 702.134 385.379 704.447 381.373C706.76 377.367 705.388 372.244 701.382 369.931C697.376 367.618 692.253 368.991 689.94 372.997C687.627 377.003 689 382.126 693.006 384.439Z" fill="black"/>
<path fill-rule="evenodd" clip-rule="evenodd" d="M719.965 392.885C720.359 392.934 720.638 393.292 720.589 393.686C720.19 396.903 717.37 403.489 709.275 403.952C708.879 403.975 708.54 403.673 708.517 403.277C708.495 402.881 708.797 402.542 709.193 402.519C716.321 402.11 718.812 396.353 719.165 393.509C719.213 393.115 719.572 392.836 719.965 392.885Z" fill="black"/>
<path d="M716.746 405.061C722.111 402.853 724.296 397.169 724.718 394.604C742.702 392.938 760.282 404.958 766.824 411.176C749.731 402.302 732.29 406.298 725.706 409.405C721.12 410.073 717.822 406.788 716.746 405.061Z" fill="white"/>
<path fill-rule="evenodd" clip-rule="evenodd" d="M750.372 399.286C757.903 402.894 763.995 407.497 767.319 410.656C767.578 410.902 767.616 411.302 767.409 411.593C767.201 411.884 766.811 411.978 766.494 411.813C749.65 403.069 732.452 407.015 726.013 410.054C725.948 410.085 725.88 410.105 725.81 410.116C720.816 410.843 717.283 407.28 716.137 405.441C716.025 405.262 715.998 405.042 716.063 404.841C716.128 404.64 716.278 404.478 716.473 404.397C718.982 403.365 720.765 401.513 721.978 399.584C723.195 397.65 723.814 395.679 724.01 394.487C724.063 394.165 724.327 393.919 724.652 393.889C733.818 393.04 742.843 395.68 750.372 399.286ZM725.32 395.273C725.019 396.634 724.35 398.511 723.194 400.349C721.998 402.249 720.26 404.138 717.836 405.353C719.144 406.985 721.902 409.184 725.5 408.709C731.686 405.828 746.797 402.291 762.464 408.412C759.168 405.862 754.79 402.995 749.752 400.581C742.509 397.111 733.956 394.605 725.32 395.273Z" fill="black"/>
<path d="M943.643 368.387C917.812 364.307 883.255 378.933 873.558 385.677C871.19 424.24 896.737 453.22 906.002 462.3C926.743 460.597 943.547 449.711 954.317 434.376C963.637 421.104 979.223 374.007 943.643 368.387Z" fill="white"/>
<path fill-rule="evenodd" clip-rule="evenodd" d="M961.327 379.393C957.993 374.079 952.392 370.132 943.587 368.742C930.75 366.714 915.714 369.333 902.655 373.316C889.84 377.225 878.983 382.43 874.039 385.782L883.043 400.909L887.947 396.56L882.884 394.512C882.7 394.437 882.612 394.228 882.686 394.044C882.76 393.86 882.97 393.772 883.153 393.846L888.753 396.112C888.869 396.159 888.951 396.261 888.973 396.384C888.994 396.506 888.95 396.631 888.857 396.713L883.195 401.734C883.115 401.805 883.007 401.837 882.902 401.82C882.796 401.804 882.703 401.741 882.648 401.649L873.853 386.874C872.084 424.526 896.887 452.832 906.136 461.929C926.687 460.191 943.337 449.385 954.023 434.169C958.646 427.587 964.848 412.56 965.459 398.496C965.764 391.469 964.671 384.722 961.327 379.393ZM966.176 398.528C965.559 412.735 959.308 427.893 954.611 434.582C943.785 449.997 926.888 460.945 906.031 462.658C905.927 462.666 905.825 462.629 905.751 462.556C896.469 453.461 870.821 424.382 873.2 385.655C873.206 385.545 873.263 385.445 873.353 385.382C878.242 381.982 889.344 376.625 902.446 372.629C915.547 368.633 930.705 365.98 943.699 368.032C952.683 369.452 958.477 373.5 961.936 379.012C965.385 384.509 966.485 391.419 966.176 398.528Z" fill="black"/>
<path fill-rule="evenodd" clip-rule="evenodd" d="M873.527 386.209C873.537 386.032 873.547 385.854 873.558 385.677C883.255 378.933 917.812 364.307 943.643 368.387C966.213 371.952 968.194 392.207 964.246 409.931L919.31 393.302L873.527 386.209Z" fill="black"/>
<path d="M908.447 406.373C906.134 410.379 901.012 411.752 897.006 409.439C893 407.126 891.627 402.003 893.94 397.997C896.253 393.991 901.376 392.618 905.382 394.931C909.388 397.244 910.76 402.367 908.447 406.373Z" fill="#FFD7DB"/>
<path fill-rule="evenodd" clip-rule="evenodd" d="M898.561 406.745C901.079 408.198 904.299 407.336 905.753 404.818C907.207 402.299 906.344 399.079 903.826 397.626C901.308 396.172 898.088 397.035 896.634 399.553C895.18 402.071 896.043 405.291 898.561 406.745ZM897.006 409.439C901.012 411.752 906.134 410.379 908.447 406.373C910.76 402.367 909.388 397.244 905.382 394.931C901.376 392.618 896.253 393.991 893.94 397.997C891.627 402.003 893 407.126 897.006 409.439Z" fill="black"/>
<path fill-rule="evenodd" clip-rule="evenodd" d="M923.965 417.885C924.359 417.934 924.638 418.292 924.589 418.686C924.19 421.903 921.37 428.489 913.275 428.952C912.879 428.975 912.54 428.673 912.517 428.277C912.495 427.881 912.797 427.542 913.193 427.519C920.321 427.11 922.812 421.353 923.165 418.509C923.213 418.115 923.572 417.836 923.965 417.885Z" fill="black"/>
<path d="M920.746 430.061C926.111 427.853 928.296 422.169 928.718 419.604C946.702 417.938 964.282 429.958 970.824 436.176C953.731 427.302 936.29 431.298 929.706 434.405C925.12 435.073 921.822 431.788 920.746 430.061Z" fill="white"/>
<path fill-rule="evenodd" clip-rule="evenodd" d="M954.372 424.286C961.903 427.894 967.995 432.497 971.319 435.656C971.578 435.902 971.616 436.302 971.409 436.593C971.201 436.884 970.811 436.978 970.494 436.813C953.65 428.069 936.452 432.015 930.013 435.054C929.948 435.085 929.88 435.105 929.81 435.116C924.816 435.843 921.283 432.28 920.137 430.441C920.025 430.262 919.998 430.042 920.063 429.841C920.128 429.64 920.278 429.478 920.473 429.397C922.982 428.365 924.765 426.513 925.978 424.584C927.195 422.65 927.814 420.679 928.01 419.487C928.063 419.165 928.327 418.919 928.652 418.889C937.818 418.04 946.843 420.68 954.372 424.286ZM929.32 420.273C929.019 421.634 928.35 423.511 927.194 425.349C925.998 427.249 924.26 429.138 921.836 430.353C923.144 431.985 925.902 434.184 929.5 433.709C935.686 430.828 950.797 427.291 966.464 433.412C963.168 430.862 958.79 427.995 953.752 425.581C946.509 422.111 937.956 419.605 929.32 420.273Z" fill="black"/>
<path d="M941.643 543.387C915.812 539.307 881.255 553.933 871.558 560.677C869.19 599.24 894.737 628.22 904.002 637.3C924.743 635.597 941.547 624.711 952.317 609.376C961.637 596.104 977.223 549.007 941.643 543.387Z" fill="white"/>
<path fill-rule="evenodd" clip-rule="evenodd" d="M959.327 554.393C955.993 549.079 950.392 545.132 941.587 543.742C928.75 541.714 913.714 544.333 900.655 548.316C887.84 552.225 876.983 557.43 872.039 560.782L881.043 575.909L885.947 571.56L880.884 569.512C880.7 569.437 880.612 569.228 880.686 569.044C880.76 568.86 880.97 568.772 881.153 568.846L886.753 571.112C886.869 571.159 886.951 571.261 886.973 571.384C886.994 571.506 886.95 571.631 886.857 571.713L881.195 576.734C881.115 576.805 881.007 576.837 880.902 576.82C880.796 576.804 880.703 576.741 880.648 576.649L871.853 561.874C870.084 599.526 894.887 627.832 904.136 636.929C924.687 635.191 941.337 624.385 952.023 609.169C956.646 602.587 962.848 587.56 963.459 573.496C963.764 566.469 962.671 559.722 959.327 554.393ZM964.176 573.528C963.559 587.735 957.308 602.893 952.611 609.582C941.785 624.997 924.888 635.945 904.031 637.658C903.927 637.666 903.825 637.629 903.751 637.556C894.469 628.461 868.821 599.382 871.2 560.655C871.206 560.545 871.263 560.445 871.353 560.382C876.242 556.982 887.344 551.625 900.446 547.629C913.547 543.633 928.705 540.98 941.699 543.032C950.683 544.452 956.477 548.5 959.936 554.012C963.385 559.509 964.485 566.419 964.176 573.528Z" fill="black"/>
<path fill-rule="evenodd" clip-rule="evenodd" d="M871.527 561.209C871.537 561.032 871.547 560.854 871.558 560.677C881.255 553.933 915.812 539.307 941.643 543.387C964.213 546.952 966.194 567.207 962.246 584.931L917.31 568.302L871.527 561.209Z" fill="black"/>
<path d="M906.447 581.373C904.134 585.379 899.012 586.752 895.006 584.439C891 582.126 889.627 577.003 891.94 572.997C894.253 568.991 899.376 567.618 903.382 569.931C907.388 572.244 908.76 577.367 906.447 581.373Z" fill="#FFD7DB"/>
<path fill-rule="evenodd" clip-rule="evenodd" d="M896.561 581.745C899.079 583.198 902.299 582.336 903.753 579.818C905.207 577.299 904.344 574.079 901.826 572.626C899.308 571.172 896.088 572.035 894.634 574.553C893.18 577.071 894.043 580.291 896.561 581.745ZM895.006 584.439C899.012 586.752 904.134 585.379 906.447 581.373C908.76 577.367 907.388 572.244 903.382 569.931C899.376 567.618 894.253 568.991 891.94 572.997C889.627 577.003 891 582.126 895.006 584.439Z" fill="black"/>
<path fill-rule="evenodd" clip-rule="evenodd" d="M921.965 592.885C922.359 592.934 922.638 593.292 922.589 593.686C922.19 596.903 919.37 603.489 911.275 603.952C910.879 603.975 910.54 603.673 910.517 603.277C910.495 602.881 910.797 602.542 911.193 602.519C918.321 602.11 920.812 596.353 921.165 593.509C921.213 593.115 921.572 592.836 921.965 592.885Z" fill="black"/>
<path d="M918.746 605.061C924.111 602.853 926.296 597.169 926.718 594.604C944.702 592.938 962.282 604.958 968.824 611.176C951.731 602.302 934.29 606.298 927.706 609.405C923.12 610.073 919.822 606.788 918.746 605.061Z" fill="white"/>
<path fill-rule="evenodd" clip-rule="evenodd" d="M952.372 599.286C959.903 602.894 965.995 607.497 969.319 610.656C969.578 610.902 969.616 611.302 969.409 611.593C969.201 611.884 968.811 611.978 968.494 611.813C951.65 603.069 934.452 607.015 928.013 610.054C927.948 610.085 927.88 610.105 927.81 610.116C922.816 610.843 919.283 607.28 918.137 605.441C918.025 605.262 917.998 605.042 918.063 604.841C918.128 604.64 918.278 604.478 918.473 604.397C920.982 603.365 922.765 601.513 923.978 599.584C925.195 597.65 925.814 595.679 926.01 594.487C926.063 594.165 926.327 593.919 926.652 593.889C935.818 593.04 944.843 595.68 952.372 599.286ZM927.32 595.273C927.019 596.634 926.35 598.511 925.194 600.349C923.998 602.249 922.26 604.138 919.836 605.353C921.144 606.985 923.902 609.184 927.5 608.709C933.686 605.828 948.797 602.291 964.464 608.412C961.168 605.862 956.79 602.995 951.752 600.581C944.509 597.111 935.956 594.605 927.32 595.273Z" fill="black"/>
<path d="M946.643 803.387C920.812 799.307 886.255 813.933 876.558 820.677C874.19 859.24 899.737 888.22 909.002 897.3C929.743 895.597 946.547 884.711 957.317 869.376C966.637 856.104 982.223 809.007 946.643 803.387Z" fill="white"/>
<path fill-rule="evenodd" clip-rule="evenodd" d="M964.327 814.393C960.993 809.079 955.392 805.132 946.587 803.742C933.75 801.714 918.714 804.333 905.655 808.316C892.84 812.225 881.983 817.43 877.039 820.782L886.043 835.909L890.947 831.56L885.884 829.512C885.7 829.437 885.612 829.228 885.686 829.044C885.76 828.86 885.97 828.772 886.153 828.846L891.753 831.112C891.869 831.159 891.951 831.261 891.973 831.384C891.994 831.506 891.95 831.631 891.857 831.713L886.195 836.734C886.115 836.805 886.007 836.837 885.902 836.82C885.796 836.804 885.703 836.741 885.648 836.649L876.853 821.874C875.084 859.526 899.887 887.832 909.136 896.929C929.687 895.191 946.337 884.385 957.023 869.169C961.646 862.587 967.848 847.56 968.459 833.496C968.764 826.469 967.671 819.722 964.327 814.393ZM969.176 833.528C968.559 847.735 962.308 862.893 957.611 869.582C946.785 884.997 929.888 895.945 909.031 897.658C908.927 897.666 908.825 897.629 908.751 897.556C899.469 888.461 873.821 859.382 876.2 820.655C876.206 820.545 876.263 820.445 876.353 820.382C881.242 816.982 892.344 811.625 905.446 807.629C918.547 803.633 933.705 800.98 946.699 803.032C955.683 804.452 961.477 808.5 964.936 814.012C968.385 819.509 969.485 826.419 969.176 833.528Z" fill="black"/>
<path fill-rule="evenodd" clip-rule="evenodd" d="M876.527 821.209C876.537 821.032 876.547 820.854 876.558 820.677C886.255 813.933 920.812 799.307 946.643 803.387C969.213 806.952 971.194 827.207 967.246 844.931L922.31 828.302L876.527 821.209Z" fill="black"/>
<path d="M911.447 841.373C909.134 845.379 904.012 846.752 900.006 844.439C896 842.126 894.627 837.003 896.94 832.997C899.253 828.991 904.376 827.618 908.382 829.931C912.388 832.244 913.76 837.367 911.447 841.373Z" fill="#FFD7DB"/>
<path fill-rule="evenodd" clip-rule="evenodd" d="M901.561 841.745C904.079 843.198 907.299 842.336 908.753 839.818C910.207 837.299 909.344 834.079 906.826 832.626C904.308 831.172 901.088 832.035 899.634 834.553C898.18 837.071 899.043 840.291 901.561 841.745ZM900.006 844.439C904.012 846.752 909.134 845.379 911.447 841.373C913.76 837.367 912.388 832.244 908.382 829.931C904.376 827.618 899.253 828.991 896.94 832.997C894.627 837.003 896 842.126 900.006 844.439Z" fill="black"/>
<path fill-rule="evenodd" clip-rule="evenodd" d="M926.965 852.885C927.359 852.934 927.638 853.292 927.589 853.686C927.19 856.903 924.37 863.489 916.275 863.952C915.879 863.975 915.54 863.673 915.517 863.277C915.495 862.881 915.797 862.542 916.193 862.519C923.321 862.11 925.812 856.353 926.165 853.509C926.213 853.115 926.572 852.836 926.965 852.885Z" fill="black"/>
<path d="M923.746 865.061C929.111 862.853 931.296 857.169 931.718 854.604C949.702 852.938 967.282 864.958 973.824 871.176C956.731 862.302 939.29 866.298 932.706 869.405C928.12 870.073 924.822 866.788 923.746 865.061Z" fill="white"/>
<path fill-rule="evenodd" clip-rule="evenodd" d="M957.372 859.286C964.903 862.894 970.995 867.497 974.319 870.656C974.578 870.902 974.616 871.302 974.409 871.593C974.201 871.884 973.811 871.978 973.494 871.813C956.65 863.069 939.452 867.015 933.013 870.054C932.948 870.085 932.88 870.105 932.81 870.116C927.816 870.843 924.283 867.28 923.137 865.441C923.025 865.262 922.998 865.042 923.063 864.841C923.128 864.64 923.278 864.478 923.473 864.397C925.982 863.365 927.765 861.513 928.978 859.584C930.195 857.65 930.814 855.679 931.01 854.487C931.063 854.165 931.327 853.919 931.652 853.889C940.818 853.04 949.843 855.68 957.372 859.286ZM932.32 855.273C932.019 856.634 931.35 858.511 930.194 860.349C928.998 862.249 927.26 864.138 924.836 865.353C926.144 866.985 928.902 869.184 932.5 868.709C938.686 865.828 953.797 862.291 969.464 868.412C966.168 865.862 961.79 862.995 956.752 860.581C949.509 857.111 940.956 854.605 932.32 855.273Z" fill="black"/>
<path d="M742.643 833.387C716.812 829.307 682.255 843.933 672.558 850.677C670.19 889.24 695.737 918.22 705.002 927.3C725.743 925.597 742.547 914.711 753.317 899.376C762.637 886.104 778.223 839.007 742.643 833.387Z" fill="white"/>
<path fill-rule="evenodd" clip-rule="evenodd" d="M760.327 844.393C756.993 839.079 751.392 835.132 742.587 833.742C729.75 831.714 714.714 834.333 701.655 838.316C688.84 842.225 677.983 847.43 673.039 850.782L682.043 865.909L686.947 861.56L681.884 859.512C681.7 859.437 681.612 859.228 681.686 859.044C681.76 858.86 681.97 858.772 682.153 858.846L687.753 861.112C687.869 861.159 687.951 861.261 687.973 861.384C687.994 861.506 687.95 861.631 687.857 861.713L682.195 866.734C682.115 866.805 682.007 866.837 681.902 866.82C681.796 866.804 681.703 866.741 681.648 866.649L672.853 851.874C671.084 889.526 695.887 917.832 705.136 926.929C725.687 925.191 742.337 914.385 753.023 899.169C757.646 892.587 763.848 877.56 764.459 863.496C764.764 856.469 763.671 849.722 760.327 844.393ZM765.176 863.528C764.559 877.735 758.308 892.893 753.611 899.582C742.785 914.997 725.888 925.945 705.031 927.658C704.927 927.666 704.825 927.629 704.751 927.556C695.469 918.461 669.821 889.382 672.2 850.655C672.206 850.545 672.263 850.445 672.353 850.382C677.242 846.982 688.344 841.625 701.446 837.629C714.547 833.633 729.705 830.98 742.699 833.032C751.683 834.452 757.477 838.5 760.936 844.012C764.385 849.509 765.485 856.419 765.176 863.528Z" fill="black"/>
<path fill-rule="evenodd" clip-rule="evenodd" d="M672.527 851.209C672.537 851.032 672.547 850.854 672.558 850.677C682.255 843.933 716.812 829.307 742.643 833.387C765.213 836.952 767.194 857.207 763.246 874.931L718.31 858.302L672.527 851.209Z" fill="black"/>
<path d="M707.447 871.373C705.134 875.379 700.012 876.752 696.006 874.439C692 872.126 690.627 867.003 692.94 862.997C695.253 858.991 700.376 857.618 704.382 859.931C708.388 862.244 709.76 867.367 707.447 871.373Z" fill="#FFD7DB"/>
<path fill-rule="evenodd" clip-rule="evenodd" d="M697.561 871.745C700.079 873.198 703.299 872.336 704.753 869.818C706.207 867.299 705.344 864.079 702.826 862.626C700.308 861.172 697.088 862.035 695.634 864.553C694.18 867.071 695.043 870.291 697.561 871.745ZM696.006 874.439C700.012 876.752 705.134 875.379 707.447 871.373C709.76 867.367 708.388 862.244 704.382 859.931C700.376 857.618 695.253 858.991 692.94 862.997C690.627 867.003 692 872.126 696.006 874.439Z" fill="black"/>
<path fill-rule="evenodd" clip-rule="evenodd" d="M722.965 882.885C723.359 882.934 723.638 883.292 723.589 883.686C723.19 886.903 720.37 893.489 712.275 893.952C711.879 893.975 711.54 893.673 711.517 893.277C711.495 892.881 711.797 892.542 712.193 892.519C719.321 892.11 721.812 886.353 722.165 883.509C722.213 883.115 722.572 882.836 722.965 882.885Z" fill="black"/>
<path d="M719.746 895.061C725.111 892.853 727.296 887.169 727.718 884.604C745.702 882.938 763.282 894.958 769.824 901.176C752.731 892.302 735.29 896.298 728.706 899.405C724.12 900.073 720.822 896.788 719.746 895.061Z" fill="white"/>
<path fill-rule="evenodd" clip-rule="evenodd" d="M753.372 889.286C760.903 892.894 766.995 897.497 770.319 900.656C770.578 900.902 770.616 901.302 770.409 901.593C770.201 901.884 769.811 901.978 769.494 901.813C752.65 893.069 735.452 897.015 729.013 900.054C728.948 900.085 728.88 900.105 728.81 900.116C723.816 900.843 720.283 897.28 719.137 895.441C719.025 895.262 718.998 895.042 719.063 894.841C719.128 894.64 719.278 894.478 719.473 894.397C721.982 893.365 723.765 891.513 724.978 889.584C726.195 887.65 726.814 885.679 727.01 884.487C727.063 884.165 727.327 883.919 727.652 883.889C736.818 883.04 745.843 885.68 753.372 889.286ZM728.32 885.273C728.019 886.634 727.35 888.511 726.194 890.349C724.998 892.249 723.26 894.138 720.836 895.353C722.144 896.985 724.902 899.184 728.5 898.709C734.686 895.828 749.797 892.291 765.464 898.412C762.168 895.862 757.79 892.995 752.752 890.581C745.509 887.111 736.956 884.605 728.32 885.273Z" fill="black"/>
<path d="M463.643 647.387C437.812 643.307 403.255 657.933 393.558 664.677C391.19 703.24 416.737 732.22 426.002 741.3C446.743 739.597 463.547 728.711 474.317 713.376C483.637 700.104 499.223 653.007 463.643 647.387Z" fill="white"/>
<path fill-rule="evenodd" clip-rule="evenodd" d="M481.327 658.393C477.993 653.079 472.392 649.132 463.587 647.742C450.75 645.714 435.714 648.333 422.655 652.316C409.84 656.225 398.983 661.43 394.039 664.782L403.043 679.909L407.947 675.56L402.884 673.512C402.7 673.437 402.612 673.228 402.686 673.044C402.76 672.86 402.97 672.772 403.153 672.846L408.753 675.112C408.869 675.159 408.951 675.261 408.973 675.384C408.994 675.506 408.95 675.631 408.857 675.713L403.195 680.734C403.115 680.805 403.007 680.837 402.902 680.82C402.796 680.804 402.703 680.741 402.648 680.649L393.853 665.874C392.084 703.526 416.887 731.832 426.136 740.929C446.687 739.191 463.337 728.385 474.023 713.169C478.646 706.587 484.848 691.56 485.459 677.496C485.764 670.469 484.671 663.722 481.327 658.393ZM486.176 677.528C485.559 691.735 479.308 706.893 474.611 713.582C463.785 728.997 446.888 739.945 426.031 741.658C425.927 741.666 425.825 741.629 425.751 741.556C416.469 732.461 390.821 703.382 393.2 664.655C393.206 664.545 393.263 664.445 393.353 664.382C398.242 660.982 409.344 655.625 422.446 651.629C435.547 647.633 450.705 644.98 463.699 647.032C472.683 648.452 478.477 652.5 481.936 658.012C485.385 663.509 486.485 670.419 486.176 677.528Z" fill="black"/>
<path fill-rule="evenodd" clip-rule="evenodd" d="M393.527 665.209C393.537 665.032 393.547 664.854 393.558 664.677C403.255 657.933 437.812 643.307 463.643 647.387C486.213 650.952 488.194 671.207 484.246 688.931L439.31 672.302L393.527 665.209Z" fill="black"/>
<path d="M428.447 685.373C426.134 689.379 421.012 690.752 417.006 688.439C413 686.126 411.627 681.003 413.94 676.997C416.253 672.991 421.376 671.618 425.382 673.931C429.388 676.244 430.76 681.367 428.447 685.373Z" fill="#FFD7DB"/>
<path fill-rule="evenodd" clip-rule="evenodd" d="M418.561 685.745C421.079 687.198 424.299 686.336 425.753 683.818C427.207 681.299 426.344 678.079 423.826 676.626C421.308 675.172 418.088 676.035 416.634 678.553C415.18 681.071 416.043 684.291 418.561 685.745ZM417.006 688.439C421.012 690.752 426.134 689.379 428.447 685.373C430.76 681.367 429.388 676.244 425.382 673.931C421.376 671.618 416.253 672.991 413.94 676.997C411.627 681.003 413 686.126 417.006 688.439Z" fill="black"/>
<path fill-rule="evenodd" clip-rule="evenodd" d="M443.965 696.885C444.359 696.934 444.638 697.292 444.589 697.686C444.19 700.903 441.37 707.489 433.275 707.952C432.879 707.975 432.54 707.673 432.517 707.277C432.495 706.881 432.797 706.542 433.193 706.519C440.321 706.11 442.812 700.353 443.165 697.509C443.213 697.115 443.572 696.836 443.965 696.885Z" fill="black"/>
<path d="M440.746 709.061C446.111 706.853 448.296 701.169 448.718 698.604C466.702 696.938 484.282 708.958 490.824 715.176C473.731 706.302 456.29 710.298 449.706 713.405C445.12 714.073 441.822 710.788 440.746 709.061Z" fill="white"/>
<path fill-rule="evenodd" clip-rule="evenodd" d="M474.372 703.286C481.903 706.894 487.995 711.497 491.319 714.656C491.578 714.902 491.616 715.302 491.409 715.593C491.201 715.884 490.811 715.978 490.494 715.813C473.65 707.069 456.452 711.015 450.013 714.054C449.948 714.085 449.88 714.105 449.81 714.116C444.816 714.843 441.283 711.28 440.137 709.441C440.025 709.262 439.998 709.042 440.063 708.841C440.128 708.64 440.278 708.478 440.473 708.397C442.982 707.365 444.765 705.513 445.978 703.584C447.195 701.65 447.814 699.679 448.01 698.487C448.063 698.165 448.327 697.919 448.652 697.889C457.818 697.04 466.843 699.68 474.372 703.286ZM449.32 699.273C449.019 700.634 448.35 702.511 447.194 704.349C445.998 706.249 444.26 708.138 441.836 709.353C443.144 710.985 445.902 713.184 449.5 712.709C455.686 709.828 470.797 706.291 486.464 712.412C483.168 709.862 478.79 706.995 473.752 704.581C466.509 701.111 457.956 698.605 449.32 699.273Z" fill="black"/>
<path d="M567.643 786.387C541.812 782.307 507.255 796.933 497.558 803.677C495.19 842.24 520.737 871.22 530.002 880.3C550.743 878.597 567.547 867.711 578.317 852.376C587.637 839.104 603.223 792.007 567.643 786.387Z" fill="white"/>
<path fill-rule="evenodd" clip-rule="evenodd" d="M585.327 797.393C581.993 792.079 576.392 788.132 567.587 786.742C554.75 784.714 539.714 787.333 526.655 791.316C513.84 795.225 502.983 800.43 498.039 803.782L507.043 818.909L511.947 814.56L506.884 812.512C506.7 812.437 506.612 812.228 506.686 812.044C506.76 811.86 506.97 811.772 507.153 811.846L512.753 814.112C512.869 814.159 512.951 814.261 512.973 814.384C512.994 814.506 512.95 814.631 512.857 814.713L507.195 819.734C507.115 819.805 507.007 819.837 506.902 819.82C506.796 819.804 506.703 819.741 506.648 819.649L497.853 804.874C496.084 842.526 520.887 870.832 530.136 879.929C550.687 878.191 567.337 867.385 578.023 852.169C582.646 845.587 588.848 830.56 589.459 816.496C589.764 809.469 588.671 802.722 585.327 797.393ZM590.176 816.528C589.559 830.735 583.308 845.893 578.611 852.582C567.785 867.997 550.888 878.945 530.031 880.658C529.927 880.666 529.825 880.629 529.751 880.556C520.469 871.461 494.821 842.382 497.2 803.655C497.206 803.545 497.263 803.445 497.353 803.382C502.242 799.982 513.344 794.625 526.446 790.629C539.547 786.633 554.705 783.98 567.699 786.032C576.683 787.452 582.477 791.5 585.936 797.012C589.385 802.509 590.485 809.419 590.176 816.528Z" fill="black"/>
<path fill-rule="evenodd" clip-rule="evenodd" d="M497.527 804.209C497.537 804.032 497.547 803.854 497.558 803.677C507.255 796.933 541.812 782.307 567.643 786.387C590.213 789.952 592.194 810.207 588.246 827.931L543.31 811.302L497.527 804.209Z" fill="black"/>
<path d="M532.447 824.373C530.134 828.379 525.012 829.752 521.006 827.439C517 825.126 515.627 820.003 517.94 815.997C520.253 811.991 525.376 810.618 529.382 812.931C533.388 815.244 534.76 820.367 532.447 824.373Z" fill="#FFD7DB"/>
<path fill-rule="evenodd" clip-rule="evenodd" d="M522.561 824.745C525.079 826.198 528.299 825.336 529.753 822.818C531.207 820.299 530.344 817.079 527.826 815.626C525.308 814.172 522.088 815.035 520.634 817.553C519.18 820.071 520.043 823.291 522.561 824.745ZM521.006 827.439C525.012 829.752 530.134 828.379 532.447 824.373C534.76 820.367 533.388 815.244 529.382 812.931C525.376 810.618 520.253 811.991 517.94 815.997C515.627 820.003 517 825.126 521.006 827.439Z" fill="black"/>
<path fill-rule="evenodd" clip-rule="evenodd" d="M547.965 835.885C548.359 835.934 548.638 836.292 548.589 836.686C548.19 839.903 545.37 846.489 537.275 846.952C536.879 846.975 536.54 846.673 536.517 846.277C536.495 845.881 536.797 845.542 537.193 845.519C544.321 845.11 546.812 839.353 547.165 836.509C547.213 836.115 547.572 835.836 547.965 835.885Z" fill="black"/>
<path d="M544.746 848.061C550.111 845.853 552.296 840.169 552.718 837.604C570.702 835.938 588.282 847.958 594.824 854.176C577.731 845.302 560.29 849.298 553.706 852.405C549.12 853.073 545.822 849.788 544.746 848.061Z" fill="white"/>
<path fill-rule="evenodd" clip-rule="evenodd" d="M578.372 842.286C585.903 845.894 591.995 850.497 595.319 853.656C595.578 853.902 595.616 854.302 595.409 854.593C595.201 854.884 594.811 854.978 594.494 854.813C577.65 846.069 560.452 850.015 554.013 853.054C553.948 853.085 553.88 853.105 553.81 853.116C548.816 853.843 545.283 850.28 544.137 848.441C544.025 848.262 543.998 848.042 544.063 847.841C544.128 847.64 544.278 847.478 544.473 847.397C546.982 846.365 548.765 844.513 549.978 842.584C551.195 840.65 551.814 838.679 552.01 837.487C552.063 837.165 552.327 836.919 552.652 836.889C561.818 836.04 570.843 838.68 578.372 842.286ZM553.32 838.273C553.019 839.634 552.35 841.511 551.194 843.349C549.998 845.249 548.26 847.138 545.836 848.353C547.144 849.985 549.902 852.184 553.5 851.709C559.686 848.828 574.797 845.291 590.464 851.412C587.168 848.862 582.79 845.995 577.752 843.581C570.509 840.111 561.956 837.605 553.32 838.273Z" fill="black"/>
<path d="M382.643 504.387C356.812 500.307 322.255 514.933 312.558 521.677C310.19 560.24 335.737 589.22 345.002 598.3C365.743 596.597 382.547 585.711 393.317 570.376C402.637 557.104 418.223 510.007 382.643 504.387Z" fill="white"/>
<path fill-rule="evenodd" clip-rule="evenodd" d="M400.327 515.393C396.993 510.079 391.392 506.132 382.587 504.742C369.75 502.714 354.714 505.333 341.655 509.316C328.84 513.225 317.983 518.43 313.039 521.782L322.043 536.909L326.947 532.56L321.884 530.512C321.7 530.437 321.612 530.228 321.686 530.044C321.76 529.86 321.97 529.772 322.153 529.846L327.753 532.112C327.869 532.159 327.951 532.261 327.973 532.384C327.994 532.506 327.95 532.631 327.857 532.713L322.195 537.734C322.115 537.805 322.007 537.837 321.902 537.82C321.796 537.804 321.703 537.741 321.648 537.649L312.853 522.874C311.084 560.526 335.887 588.832 345.136 597.929C365.687 596.191 382.337 585.385 393.023 570.169C397.646 563.587 403.848 548.56 404.459 534.496C404.764 527.469 403.671 520.722 400.327 515.393ZM405.176 534.528C404.559 548.735 398.308 563.893 393.611 570.582C382.785 585.997 365.888 596.945 345.031 598.658C344.927 598.666 344.825 598.629 344.751 598.556C335.469 589.461 309.821 560.382 312.2 521.655C312.206 521.545 312.263 521.445 312.353 521.382C317.242 517.982 328.344 512.625 341.446 508.629C354.547 504.633 369.705 501.98 382.699 504.032C391.683 505.452 397.477 509.5 400.936 515.012C404.385 520.509 405.485 527.419 405.176 534.528Z" fill="black"/>
<path fill-rule="evenodd" clip-rule="evenodd" d="M312.527 522.209C312.537 522.032 312.547 521.854 312.558 521.677C322.255 514.933 356.812 500.307 382.643 504.387C405.213 507.952 407.194 528.207 403.246 545.931L358.31 529.302L312.527 522.209Z" fill="black"/>
<path d="M347.447 542.373C345.134 546.379 340.012 547.752 336.006 545.439C332 543.126 330.627 538.003 332.94 533.997C335.253 529.991 340.376 528.618 344.382 530.931C348.388 533.244 349.76 538.367 347.447 542.373Z" fill="#FFD7DB"/>
<path fill-rule="evenodd" clip-rule="evenodd" d="M337.561 542.745C340.079 544.198 343.299 543.336 344.753 540.818C346.207 538.299 345.344 535.079 342.826 533.626C340.308 532.172 337.088 533.035 335.634 535.553C334.18 538.071 335.043 541.291 337.561 542.745ZM336.006 545.439C340.012 547.752 345.134 546.379 347.447 542.373C349.76 538.367 348.388 533.244 344.382 530.931C340.376 528.618 335.253 529.991 332.94 533.997C330.627 538.003 332 543.126 336.006 545.439Z" fill="black"/>
<path fill-rule="evenodd" clip-rule="evenodd" d="M362.965 553.885C363.359 553.934 363.638 554.292 363.589 554.686C363.19 557.903 360.37 564.489 352.275 564.952C351.879 564.975 351.54 564.673 351.517 564.277C351.495 563.881 351.797 563.542 352.193 563.519C359.321 563.11 361.812 557.353 362.165 554.509C362.213 554.115 362.572 553.836 362.965 553.885Z" fill="black"/>
<path d="M359.746 566.061C365.111 563.853 367.296 558.169 367.718 555.604C385.702 553.938 403.282 565.958 409.824 572.176C392.731 563.302 375.29 567.298 368.706 570.405C364.12 571.073 360.822 567.788 359.746 566.061Z" fill="white"/>
<path fill-rule="evenodd" clip-rule="evenodd" d="M393.372 560.286C400.903 563.894 406.995 568.497 410.319 571.656C410.578 571.902 410.616 572.302 410.409 572.593C410.201 572.884 409.811 572.978 409.494 572.813C392.65 564.069 375.452 568.015 369.013 571.054C368.948 571.085 368.88 571.105 368.81 571.116C363.816 571.843 360.283 568.28 359.137 566.441C359.025 566.262 358.998 566.042 359.063 565.841C359.128 565.64 359.278 565.478 359.473 565.397C361.982 564.365 363.765 562.513 364.978 560.584C366.195 558.65 366.814 556.679 367.01 555.487C367.063 555.165 367.327 554.919 367.652 554.889C376.818 554.04 385.843 556.68 393.372 560.286ZM368.32 556.273C368.019 557.634 367.35 559.511 366.194 561.349C364.998 563.249 363.26 565.138 360.836 566.353C362.144 567.985 364.902 570.184 368.5 569.709C374.686 566.828 389.797 563.291 405.464 569.412C402.168 566.862 397.79 563.995 392.752 561.581C385.509 558.111 376.956 555.605 368.32 556.273Z" fill="black"/>
<path d="M360.643 344.387C334.812 340.307 300.255 354.933 290.558 361.677C288.19 400.24 313.737 429.22 323.002 438.3C343.743 436.597 360.547 425.711 371.317 410.376C380.637 397.104 396.223 350.007 360.643 344.387Z" fill="white"/>
<path fill-rule="evenodd" clip-rule="evenodd" d="M378.327 355.393C374.993 350.079 369.392 346.132 360.587 344.742C347.75 342.714 332.714 345.333 319.655 349.316C306.84 353.225 295.983 358.43 291.039 361.782L300.043 376.909L304.947 372.56L299.884 370.512C299.7 370.437 299.612 370.228 299.686 370.044C299.76 369.86 299.97 369.772 300.153 369.846L305.753 372.112C305.869 372.159 305.951 372.261 305.973 372.384C305.994 372.506 305.95 372.631 305.857 372.713L300.195 377.734C300.115 377.805 300.007 377.837 299.902 377.82C299.796 377.804 299.703 377.741 299.648 377.649L290.853 362.874C289.084 400.526 313.887 428.832 323.136 437.929C343.687 436.191 360.337 425.385 371.023 410.169C375.646 403.587 381.848 388.56 382.459 374.496C382.764 367.469 381.671 360.722 378.327 355.393ZM383.176 374.528C382.559 388.735 376.308 403.893 371.611 410.582C360.785 425.997 343.888 436.945 323.031 438.658C322.927 438.666 322.825 438.629 322.751 438.556C313.469 429.461 287.821 400.382 290.2 361.655C290.206 361.545 290.263 361.445 290.353 361.382C295.242 357.982 306.344 352.625 319.446 348.629C332.547 344.633 347.705 341.98 360.699 344.032C369.683 345.452 375.477 349.5 378.936 355.012C382.385 360.509 383.485 367.419 383.176 374.528Z" fill="black"/>
<path fill-rule="evenodd" clip-rule="evenodd" d="M290.527 362.209C290.537 362.032 290.547 361.854 290.558 361.677C300.255 354.933 334.812 340.307 360.643 344.387C383.213 347.952 385.194 368.207 381.246 385.931L336.31 369.302L290.527 362.209Z" fill="black"/>
<path d="M325.447 382.373C323.134 386.379 318.012 387.752 314.006 385.439C310 383.126 308.627 378.003 310.94 373.997C313.253 369.991 318.376 368.618 322.382 370.931C326.388 373.244 327.76 378.367 325.447 382.373Z" fill="#FFD7DB"/>
<path fill-rule="evenodd" clip-rule="evenodd" d="M315.561 382.745C318.079 384.198 321.299 383.336 322.753 380.818C324.207 378.299 323.344 375.079 320.826 373.626C318.308 372.172 315.088 373.035 313.634 375.553C312.18 378.071 313.043 381.291 315.561 382.745ZM314.006 385.439C318.012 387.752 323.134 386.379 325.447 382.373C327.76 378.367 326.388 373.244 322.382 370.931C318.376 368.618 313.253 369.991 310.94 373.997C308.627 378.003 310 383.126 314.006 385.439Z" fill="black"/>
<path fill-rule="evenodd" clip-rule="evenodd" d="M340.965 393.885C341.359 393.934 341.638 394.292 341.589 394.686C341.19 397.903 338.37 404.489 330.275 404.952C329.879 404.975 329.54 404.673 329.517 404.277C329.495 403.881 329.797 403.542 330.193 403.519C337.321 403.11 339.812 397.353 340.165 394.509C340.213 394.115 340.572 393.836 340.965 393.885Z" fill="black"/>
<path d="M337.746 406.061C343.111 403.853 345.296 398.169 345.718 395.604C363.702 393.938 381.282 405.958 387.824 412.176C370.731 403.302 353.29 407.298 346.706 410.405C342.12 411.073 338.822 407.788 337.746 406.061Z" fill="white"/>
<path fill-rule="evenodd" clip-rule="evenodd" d="M371.372 400.286C378.903 403.894 384.995 408.497 388.319 411.656C388.578 411.902 388.616 412.302 388.409 412.593C388.201 412.884 387.811 412.978 387.494 412.813C370.65 404.069 353.452 408.015 347.013 411.054C346.948 411.085 346.88 411.105 346.81 411.116C341.816 411.843 338.283 408.28 337.137 406.441C337.025 406.262 336.998 406.042 337.063 405.841C337.128 405.64 337.278 405.478 337.473 405.397C339.982 404.365 341.765 402.513 342.978 400.584C344.195 398.65 344.814 396.679 345.01 395.487C345.063 395.165 345.327 394.919 345.652 394.889C354.818 394.04 363.843 396.68 371.372 400.286ZM346.32 396.273C346.019 397.634 345.35 399.511 344.194 401.349C342.998 403.249 341.26 405.138 338.836 406.353C340.144 407.985 342.902 410.184 346.5 409.709C352.686 406.828 367.797 403.291 383.464 409.412C380.168 406.862 375.79 403.995 370.752 401.581C363.509 398.111 354.956 395.605 346.32 396.273Z" fill="black"/>
<path d="M926.643 184.387C900.812 180.307 866.255 194.933 856.558 201.677C854.19 240.24 879.737 269.22 889.002 278.3C909.743 276.597 926.547 265.711 937.317 250.376C946.637 237.104 962.223 190.007 926.643 184.387Z" fill="white"/>
<path fill-rule="evenodd" clip-rule="evenodd" d="M944.327 195.393C940.993 190.079 935.392 186.132 926.587 184.742C913.75 182.714 898.714 185.333 885.655 189.316C872.84 193.225 861.983 198.43 857.039 201.782L866.043 216.909L870.947 212.56L865.884 210.512C865.7 210.437 865.612 210.228 865.686 210.044C865.76 209.86 865.97 209.772 866.153 209.846L871.753 212.112C871.869 212.159 871.951 212.261 871.973 212.384C871.994 212.506 871.95 212.631 871.857 212.713L866.195 217.734C866.115 217.805 866.007 217.837 865.902 217.82C865.796 217.804 865.703 217.741 865.648 217.649L856.853 202.874C855.084 240.526 879.887 268.832 889.136 277.929C909.687 276.191 926.337 265.385 937.023 250.169C941.646 243.587 947.848 228.56 948.459 214.496C948.764 207.469 947.671 200.722 944.327 195.393ZM949.176 214.528C948.559 228.735 942.308 243.893 937.611 250.582C926.785 265.997 909.888 276.945 889.031 278.658C888.927 278.666 888.825 278.629 888.751 278.556C879.469 269.461 853.821 240.382 856.2 201.655C856.206 201.545 856.263 201.445 856.353 201.382C861.242 197.982 872.344 192.625 885.446 188.629C898.547 184.633 913.705 181.98 926.699 184.032C935.683 185.452 941.477 189.5 944.936 195.012C948.385 200.509 949.485 207.419 949.176 214.528Z" fill="black"/>
<path fill-rule="evenodd" clip-rule="evenodd" d="M856.527 202.209C856.537 202.032 856.547 201.854 856.558 201.677C866.255 194.933 900.812 180.307 926.643 184.387C949.213 187.952 951.194 208.207 947.246 225.931L902.31 209.302L856.527 202.209Z" fill="black"/>
<path d="M891.447 222.373C889.134 226.379 884.012 227.752 880.006 225.439C876 223.126 874.627 218.003 876.94 213.997C879.253 209.991 884.376 208.618 888.382 210.931C892.388 213.244 893.76 218.367 891.447 222.373Z" fill="#FFD7DB"/>
<path fill-rule="evenodd" clip-rule="evenodd" d="M881.561 222.745C884.079 224.198 887.299 223.336 888.753 220.818C890.207 218.299 889.344 215.079 886.826 213.626C884.308 212.172 881.088 213.035 879.634 215.553C878.18 218.071 879.043 221.291 881.561 222.745ZM880.006 225.439C884.012 227.752 889.134 226.379 891.447 222.373C893.76 218.367 892.388 213.244 888.382 210.931C884.376 208.618 879.253 209.991 876.94 213.997C874.627 218.003 876 223.126 880.006 225.439Z" fill="black"/>
<path fill-rule="evenodd" clip-rule="evenodd" d="M906.965 233.885C907.359 233.934 907.638 234.292 907.589 234.686C907.19 237.903 904.37 244.489 896.275 244.952C895.879 244.975 895.54 244.673 895.517 244.277C895.495 243.881 895.797 243.542 896.193 243.519C903.321 243.11 905.812 237.353 906.165 234.509C906.213 234.115 906.572 233.836 906.965 233.885Z" fill="black"/>
<path d="M903.746 246.061C909.111 243.853 911.296 238.169 911.718 235.604C929.702 233.938 947.282 245.958 953.824 252.176C936.731 243.302 919.29 247.298 912.706 250.405C908.12 251.073 904.822 247.788 903.746 246.061Z" fill="white"/>
<path fill-rule="evenodd" clip-rule="evenodd" d="M937.372 240.286C944.903 243.894 950.995 248.497 954.319 251.656C954.578 251.902 954.616 252.302 954.409 252.593C954.201 252.884 953.811 252.978 953.494 252.813C936.65 244.069 919.452 248.015 913.013 251.054C912.948 251.085 912.88 251.105 912.81 251.116C907.816 251.843 904.283 248.28 903.137 246.441C903.025 246.262 902.998 246.042 903.063 245.841C903.128 245.64 903.278 245.478 903.473 245.397C905.982 244.365 907.765 242.513 908.978 240.584C910.195 238.65 910.814 236.679 911.01 235.487C911.063 235.165 911.327 234.919 911.652 234.889C920.818 234.04 929.843 236.68 937.372 240.286ZM912.32 236.273C912.019 237.634 911.35 239.511 910.194 241.349C908.998 243.249 907.26 245.138 904.836 246.353C906.144 247.985 908.902 250.184 912.5 249.709C918.686 246.828 933.797 243.291 949.464 249.412C946.168 246.862 941.79 243.995 936.752 241.581C929.509 238.111 920.956 235.605 912.32 236.273Z" fill="black"/>
<path d="M730.643 188.387C704.812 184.307 670.255 198.933 660.558 205.677C658.19 244.24 683.737 273.22 693.002 282.3C713.743 280.597 730.547 269.711 741.317 254.376C750.637 241.104 766.223 194.007 730.643 188.387Z" fill="white"/>
<path fill-rule="evenodd" clip-rule="evenodd" d="M748.327 199.393C744.993 194.079 739.392 190.132 730.587 188.742C717.75 186.714 702.714 189.333 689.655 193.316C676.84 197.225 665.983 202.43 661.039 205.782L670.043 220.909L674.947 216.56L669.884 214.512C669.7 214.437 669.612 214.228 669.686 214.044C669.76 213.86 669.97 213.772 670.153 213.846L675.753 216.112C675.869 216.159 675.951 216.261 675.973 216.384C675.994 216.506 675.95 216.631 675.857 216.713L670.195 221.734C670.115 221.805 670.007 221.837 669.902 221.82C669.796 221.804 669.703 221.741 669.648 221.649L660.853 206.874C659.084 244.526 683.887 272.832 693.136 281.929C713.687 280.191 730.337 269.385 741.023 254.169C745.646 247.587 751.848 232.56 752.459 218.496C752.764 211.469 751.671 204.722 748.327 199.393ZM753.176 218.528C752.559 232.735 746.308 247.893 741.611 254.582C730.785 269.997 713.888 280.945 693.031 282.658C692.927 282.666 692.825 282.629 692.751 282.556C683.469 273.461 657.821 244.382 660.2 205.655C660.206 205.545 660.263 205.445 660.353 205.382C665.242 201.982 676.344 196.625 689.446 192.629C702.547 188.633 717.705 185.98 730.699 188.032C739.683 189.452 745.477 193.5 748.936 199.012C752.385 204.509 753.485 211.419 753.176 218.528Z" fill="black"/>
<path fill-rule="evenodd" clip-rule="evenodd" d="M660.527 206.209C660.537 206.032 660.547 205.854 660.558 205.677C670.255 198.933 704.812 184.307 730.643 188.387C753.213 191.952 755.194 212.207 751.246 229.931L706.31 213.302L660.527 206.209Z" fill="black"/>
<path d="M695.447 226.373C693.134 230.379 688.012 231.752 684.006 229.439C680 227.126 678.627 222.003 680.94 217.997C683.253 213.991 688.376 212.618 692.382 214.931C696.388 217.244 697.76 222.367 695.447 226.373Z" fill="#FFD7DB"/>
<path fill-rule="evenodd" clip-rule="evenodd" d="M685.561 226.745C688.079 228.198 691.299 227.336 692.753 224.818C694.207 222.299 693.344 219.079 690.826 217.626C688.308 216.172 685.088 217.035 683.634 219.553C682.18 222.071 683.043 225.291 685.561 226.745ZM684.006 229.439C688.012 231.752 693.134 230.379 695.447 226.373C697.76 222.367 696.388 217.244 692.382 214.931C688.376 212.618 683.253 213.991 680.94 217.997C678.627 222.003 680 227.126 684.006 229.439Z" fill="black"/>
<path fill-rule="evenodd" clip-rule="evenodd" d="M710.965 237.885C711.359 237.934 711.638 238.292 711.589 238.686C711.19 241.903 708.37 248.489 700.275 248.952C699.879 248.975 699.54 248.673 699.517 248.277C699.495 247.881 699.797 247.542 700.193 247.519C707.321 247.11 709.812 241.353 710.165 238.509C710.213 238.115 710.572 237.836 710.965 237.885Z" fill="black"/>
<path d="M707.746 250.061C713.111 247.853 715.296 242.169 715.718 239.604C733.702 237.938 751.282 249.958 757.824 256.176C740.731 247.302 723.29 251.298 716.706 254.405C712.12 255.073 708.822 251.788 707.746 250.061Z" fill="white"/>
<path fill-rule="evenodd" clip-rule="evenodd" d="M741.372 244.286C748.903 247.894 754.995 252.497 758.319 255.656C758.578 255.902 758.616 256.302 758.409 256.593C758.201 256.884 757.811 256.978 757.494 256.813C740.65 248.069 723.452 252.015 717.013 255.054C716.948 255.085 716.88 255.105 716.81 255.116C711.816 255.843 708.283 252.28 707.137 250.441C707.025 250.262 706.998 250.042 707.063 249.841C707.128 249.64 707.278 249.478 707.473 249.397C709.982 248.365 711.765 246.513 712.978 244.584C714.195 242.65 714.814 240.679 715.01 239.487C715.063 239.165 715.327 238.919 715.652 238.889C724.818 238.04 733.843 240.68 741.372 244.286ZM716.32 240.273C716.019 241.634 715.35 243.511 714.194 245.349C712.998 247.249 711.26 249.138 708.836 250.353C710.144 251.985 712.902 254.184 716.5 253.709C722.686 250.828 737.797 247.291 753.464 253.412C750.168 250.862 745.79 247.995 740.752 245.581C733.509 242.111 724.956 239.605 716.32 240.273Z" fill="black"/>
</g>
</g>
<defs>
<filter id="filter0_d_64_365" x="284.045" y="177.321" width="704.498" height="764.338" filterUnits="userSpaceOnUse" color-interpolation-filters="sRGB">
<feFlood flood-opacity="0" result="BackgroundImageFix"/>
<feColorMatrix in="SourceAlpha" type="matrix" values="0 0 0 0 0 0 0 0 0 0 0 0 0 0 0 0 0 0 127 0" result="hardAlpha"/>
<feOffset dx="4" dy="4"/>
<feGaussianBlur stdDeviation="5"/>
<feComposite in2="hardAlpha" operator="out"/>
<feColorMatrix type="matrix" values="0 0 0 0 0 0 0 0 0 0 0 0 0 0 0 0 0 0 0.25 0"/>
<feBlend mode="normal" in2="BackgroundImageFix" result="effect1_dropShadow_64_365"/>
<feBlend mode="normal" in="SourceGraphic" in2="effect1_dropShadow_64_365" result="shape"/>
</filter>
<linearGradient id="paint0_linear_64_365" x1="1033" y1="872.5" x2="164" y2="287" gradientUnits="userSpaceOnUse">
<stop stop-color="#22529A"/>
<stop offset="0.383087" stop-color="#26C4CE"/>
<stop offset="1" stop-color="#26C4CE" stop-opacity="0"/>
</linearGradient>
<clipPath id="clip0_64_365">
<rect width="1033" height="982" fill="white"/>
</clipPath>
</defs>
</svg>
