<svg width="463" height="432" viewBox="0 0 463 432" fill="none" xmlns="http://www.w3.org/2000/svg">
<path d="M219.5 11.0305C117.5 50.2333 23 175.364 2 220.031C74 364.531 227 416.031 279.5 429.531C351 380.031 389.067 305.531 396 227.531C402 160.031 360 -42.9695 219.5 11.0305Z" fill="white"/>
<path fill-rule="evenodd" clip-rule="evenodd" d="M306.494 13.911C283.322 1.64621 254.81 -0.933781 220.038 12.4307C169.348 31.9132 120.408 72.807 81.4713 114.505C43.2614 155.426 14.8457 196.945 3.95937 219.408L68.1504 255.336L76.8119 229.352L54.208 232.516C53.3875 232.631 52.6293 232.059 52.5145 231.239C52.3996 230.418 52.9716 229.66 53.792 229.545L78.792 226.045C79.3061 225.973 79.8209 226.172 80.153 226.571C80.485 226.97 80.5872 227.512 80.423 228.005L70.423 258.005C70.2817 258.429 69.9585 258.768 69.5416 258.929C69.1247 259.091 68.6575 259.058 68.2674 258.839L5.56662 223.746C77.8351 363.697 226.734 414.311 279.209 427.906C349.949 378.68 387.627 304.788 394.506 227.398C397.482 193.918 388.531 126.582 361.357 74.411C347.779 48.3419 329.727 26.2085 306.494 13.911ZM364.018 73.0251C391.469 125.729 400.518 193.643 397.494 227.663C390.525 306.068 352.251 380.989 280.354 430.764C279.996 431.012 279.548 431.092 279.126 430.983C226.534 417.46 72.964 365.815 0.657431 220.699C0.452877 220.289 0.447392 219.807 0.642543 219.392C11.2314 196.87 40.2151 154.292 79.2787 112.458C118.342 70.6236 167.652 29.3507 218.962 9.63038C254.44 -4.00517 283.866 -1.46016 307.897 11.2595C331.866 23.9464 350.284 46.6567 364.018 73.0251Z" fill="black"/>
<path fill-rule="evenodd" clip-rule="evenodd" d="M2.99912 222.021C2.66431 221.359 2.33126 220.695 2 220.03C23 175.364 117.5 50.2333 219.5 11.0305C308.626 -23.2242 358.115 45.9365 380.86 118.324L183.5 152.03L2.99912 222.021Z" fill="black"/>
<path d="M171.5 222.031C171.5 241.36 155.83 257.031 136.5 257.031C117.17 257.031 101.5 241.36 101.5 222.031C101.5 202.701 117.17 187.031 136.5 187.031C155.83 187.031 171.5 202.701 171.5 222.031Z" fill="#FFD7DB"/>
<path fill-rule="evenodd" clip-rule="evenodd" d="M136.5 244.031C148.65 244.031 158.5 234.181 158.5 222.031C158.5 209.88 148.65 200.031 136.5 200.031C124.35 200.031 114.5 209.88 114.5 222.031C114.5 234.181 124.35 244.031 136.5 244.031ZM136.5 257.031C155.83 257.031 171.5 241.36 171.5 222.031C171.5 202.701 155.83 187.031 136.5 187.031C117.17 187.031 101.5 202.701 101.5 222.031C101.5 241.36 117.17 257.031 136.5 257.031Z" fill="black"/>
<path fill-rule="evenodd" clip-rule="evenodd" d="M251.709 231.268C253.235 230.622 254.995 231.336 255.641 232.862C260.919 245.34 264.473 275.062 236.146 293.655C234.761 294.564 232.901 294.178 231.992 292.793C231.083 291.408 231.469 289.548 232.854 288.639C257.797 272.267 254.781 246.23 250.115 235.199C249.469 233.673 250.183 231.913 251.709 231.268Z" fill="black"/>
<path d="M265.5 282.058C280.3 262.858 276.333 237.725 272.5 227.558C334.1 183.958 422.833 190.725 459.5 199.558C379.1 203.158 324.333 254.058 307 279.058C291.8 291.058 273 286.058 265.5 282.058Z" fill="white"/>
<path fill-rule="evenodd" clip-rule="evenodd" d="M375.12 190.904C409.911 188.225 441.575 192.154 460.203 196.641C461.656 196.991 462.629 198.357 462.486 199.845C462.343 201.333 461.127 202.488 459.634 202.555C380.409 206.102 326.418 256.316 309.465 280.767C309.296 281.011 309.092 281.229 308.859 281.413C292.309 294.479 272.077 288.966 264.088 284.705C263.309 284.29 262.753 283.552 262.567 282.689C262.381 281.826 262.585 280.926 263.124 280.226C270.045 271.248 272.627 260.821 272.99 251.306C273.353 241.766 271.474 233.339 269.693 228.616C269.211 227.339 269.653 225.898 270.767 225.109C302.164 202.887 340.338 193.583 375.12 190.904ZM276.074 228.724C277.829 234.278 279.331 242.469 278.985 251.535C278.628 260.908 276.288 271.376 270.053 280.838C278.197 284.011 292.771 286.208 304.799 276.97C321.164 253.62 368.46 209.247 437.944 198.664C420.689 196.323 398.857 195.094 375.58 196.887C342.119 199.463 305.932 208.263 276.074 228.724Z" fill="black"/>
</svg>
